<mxfile host="65bd71144e" modified="2020-12-10T07:35:55.364Z" agent="5.0 (Macintosh; Intel Mac OS X 10_15_7) AppleWebKit/537.36 (KHTML, like Gecko) Code/1.51.1 Chrome/83.0.4103.122 Electron/9.3.3 Safari/537.36" etag="FLy2r5HRn-S35vJsMR5P" version="13.10.0" type="embed">
    <diagram id="-N9uZjTop2ZxeEDGDAec" name="Page-1">
        <mxGraphModel dx="1621" dy="920" grid="0" gridSize="10" guides="1" tooltips="1" connect="1" arrows="1" fold="1" page="0" pageScale="1" pageWidth="850" pageHeight="1100" math="0" shadow="0">
            <root>
                <mxCell id="0"/>
                <mxCell id="1" parent="0"/>
                <mxCell id="266" style="edgeStyle=orthogonalEdgeStyle;rounded=0;orthogonalLoop=1;jettySize=auto;html=1;entryX=0.5;entryY=0;entryDx=0;entryDy=0;fontSize=14;strokeColor=#878787;" parent="1" source="6" target="11" edge="1">
                    <mxGeometry relative="1" as="geometry"/>
                </mxCell>
                <mxCell id="6" value="&lt;font face=&quot;helvetica&quot; style=&quot;font-size: 14px;&quot;&gt;1.注册设备成功&lt;/font&gt;" style="rounded=1;whiteSpace=wrap;html=1;strokeColor=none;fillColor=#006EFF;fontSize=14;fontColor=#FFFFFF;" parent="1" vertex="1">
                    <mxGeometry x="360" y="23" width="120" height="60" as="geometry"/>
                </mxCell>
                <mxCell id="10" value="是" style="text;html=1;strokeColor=none;fillColor=none;align=center;verticalAlign=middle;whiteSpace=wrap;rounded=0;fontColor=#999999;aspect=fixed;fontSize=14;" parent="1" vertex="1">
                    <mxGeometry x="420" y="205" width="28.8" height="24" as="geometry"/>
                </mxCell>
                <mxCell id="214" style="edgeStyle=orthogonalEdgeStyle;rounded=0;orthogonalLoop=1;jettySize=auto;html=1;exitX=1;exitY=0.5;exitDx=0;exitDy=0;entryX=0;entryY=0.5;entryDx=0;entryDy=0;fontSize=14;strokeColor=#878787;" parent="1" source="11" target="155" edge="1">
                    <mxGeometry relative="1" as="geometry"/>
                </mxCell>
                <mxCell id="268" style="edgeStyle=orthogonalEdgeStyle;rounded=0;orthogonalLoop=1;jettySize=auto;html=1;entryX=0.5;entryY=0;entryDx=0;entryDy=0;fontSize=14;fontColor=#999999;strokeColor=#878787;" parent="1" source="11" target="159" edge="1">
                    <mxGeometry relative="1" as="geometry"/>
                </mxCell>
                <mxCell id="11" value="需要账号&lt;br style=&quot;font-size: 14px;&quot;&gt;推送能力" style="rhombus;whiteSpace=wrap;html=1;strokeColor=none;fillColor=#FF7200;fontSize=14;fontColor=#FFFFFF;" parent="1" vertex="1">
                    <mxGeometry x="335" y="116" width="170" height="85" as="geometry"/>
                </mxCell>
                <mxCell id="155" value="&lt;font face=&quot;helvetica&quot; style=&quot;font-size: 14px;&quot;&gt;流程结束&lt;br style=&quot;font-size: 14px;&quot;&gt;&lt;/font&gt;" style="rounded=1;whiteSpace=wrap;html=1;strokeColor=none;fillColor=#006EFF;fontSize=14;fontColor=#FFFFFF;" parent="1" vertex="1">
                    <mxGeometry x="593" y="128.5" width="120" height="60" as="geometry"/>
                </mxCell>
                <mxCell id="157" value="否" style="text;html=1;strokeColor=none;fillColor=none;align=center;verticalAlign=middle;whiteSpace=wrap;rounded=0;fontColor=#999999;aspect=fixed;fontSize=14;" parent="1" vertex="1">
                    <mxGeometry x="532" y="134" width="28.8" height="24" as="geometry"/>
                </mxCell>
                <mxCell id="166" style="edgeStyle=orthogonalEdgeStyle;rounded=0;orthogonalLoop=1;jettySize=auto;html=1;exitX=0.5;exitY=1;exitDx=0;exitDy=0;entryX=0.5;entryY=0;entryDx=0;entryDy=0;fontSize=14;strokeColor=#878787;" parent="1" source="159" target="160" edge="1">
                    <mxGeometry relative="1" as="geometry"/>
                </mxCell>
                <mxCell id="159" value="&lt;font face=&quot;helvetica&quot; style=&quot;font-size: 14px&quot;&gt;2.App获取要绑定的账号&lt;br&gt;列表(例如登录&quot;微信&quot;账号，&lt;br&gt;得到“微信openid”作为账号)&lt;/font&gt;" style="rounded=0;whiteSpace=wrap;html=1;strokeColor=none;fillColor=#00A4FF;fontSize=14;fontColor=#FFFFFF;" parent="1" vertex="1">
                    <mxGeometry x="325" y="239" width="190" height="80" as="geometry"/>
                </mxCell>
                <mxCell id="221" style="edgeStyle=orthogonalEdgeStyle;rounded=0;orthogonalLoop=1;jettySize=auto;html=1;exitX=0.5;exitY=1;exitDx=0;exitDy=0;entryX=0.5;entryY=0;entryDx=0;entryDy=0;fontSize=14;strokeColor=#878787;" parent="1" source="160" target="171" edge="1">
                    <mxGeometry relative="1" as="geometry"/>
                </mxCell>
                <mxCell id="160" value="是否获取成功" style="rhombus;whiteSpace=wrap;html=1;strokeColor=none;fillColor=#FF7200;fontSize=14;fontColor=#FFFFFF;" parent="1" vertex="1">
                    <mxGeometry x="335" y="356" width="170" height="85" as="geometry"/>
                </mxCell>
                <mxCell id="165" value="否" style="text;html=1;strokeColor=none;fillColor=none;align=center;verticalAlign=middle;whiteSpace=wrap;rounded=0;fontColor=#999999;aspect=fixed;fontSize=14;" parent="1" vertex="1">
                    <mxGeometry x="566.1999999999999" y="373" width="28.8" height="24" as="geometry"/>
                </mxCell>
                <mxCell id="179" style="edgeStyle=orthogonalEdgeStyle;rounded=0;orthogonalLoop=1;jettySize=auto;html=1;exitX=0.5;exitY=1;exitDx=0;exitDy=0;entryX=0.5;entryY=0;entryDx=0;entryDy=0;fontSize=14;strokeColor=#878787;" parent="1" source="171" target="178" edge="1">
                    <mxGeometry relative="1" as="geometry"/>
                </mxCell>
                <mxCell id="171" value="&lt;font face=&quot;helvetica&quot; style=&quot;font-size: 14px&quot;&gt;3.新增或更新已有账号类型：&lt;br&gt;调用upsertAccounts, 例如&lt;br&gt;绑定&quot;微信 openid&lt;/font&gt;&lt;font face=&quot;helvetica&quot; style=&quot;font-size: 14px&quot;&gt;&quot;作为账号&lt;/font&gt;" style="rounded=0;whiteSpace=wrap;html=1;strokeColor=none;fillColor=#00A4FF;fontSize=14;fontColor=#FFFFFF;" parent="1" vertex="1">
                    <mxGeometry x="325" y="490" width="190" height="80" as="geometry"/>
                </mxCell>
                <mxCell id="174" value="是" style="text;html=1;strokeColor=none;fillColor=none;align=center;verticalAlign=middle;whiteSpace=wrap;rounded=0;fontColor=#999999;aspect=fixed;fontSize=14;" parent="1" vertex="1">
                    <mxGeometry x="420" y="450" width="28.8" height="24" as="geometry"/>
                </mxCell>
                <mxCell id="208" style="edgeStyle=orthogonalEdgeStyle;rounded=0;orthogonalLoop=1;jettySize=auto;html=1;exitX=0.5;exitY=1;exitDx=0;exitDy=0;entryX=0.5;entryY=0;entryDx=0;entryDy=0;fontSize=14;strokeColor=#878787;" parent="1" source="178" target="206" edge="1">
                    <mxGeometry relative="1" as="geometry">
                        <Array as="points">
                            <mxPoint x="420" y="753"/>
                            <mxPoint x="330" y="753"/>
                        </Array>
                    </mxGeometry>
                </mxCell>
                <mxCell id="273" style="edgeStyle=orthogonalEdgeStyle;rounded=0;orthogonalLoop=1;jettySize=auto;html=1;strokeColor=#878787;entryX=0.5;entryY=0;entryDx=0;entryDy=0;" edge="1" parent="1" source="178" target="272">
                    <mxGeometry relative="1" as="geometry">
                        <Array as="points">
                            <mxPoint x="420" y="753"/>
                            <mxPoint x="510" y="753"/>
                        </Array>
                    </mxGeometry>
                </mxCell>
                <mxCell id="287" style="edgeStyle=orthogonalEdgeStyle;rounded=0;orthogonalLoop=1;jettySize=auto;html=1;entryX=1;entryY=0.5;entryDx=0;entryDy=0;strokeColor=#878787;" edge="1" parent="1" source="178" target="286">
                    <mxGeometry relative="1" as="geometry"/>
                </mxCell>
                <mxCell id="178" value="&lt;font face=&quot;helvetica&quot; style=&quot;font-size: 14px&quot;&gt;4.用户正常使用App&lt;br style=&quot;font-size: 14px&quot;&gt;&lt;/font&gt;" style="rounded=0;whiteSpace=wrap;html=1;strokeColor=none;fillColor=#00A4FF;fontSize=14;fontColor=#FFFFFF;" parent="1" vertex="1">
                    <mxGeometry x="325" y="620" width="190" height="80" as="geometry"/>
                </mxCell>
                <mxCell id="187" value="否" style="text;html=1;strokeColor=none;fillColor=none;align=center;verticalAlign=middle;whiteSpace=wrap;rounded=0;fontColor=#999999;aspect=fixed;fontSize=14;" parent="1" vertex="1">
                    <mxGeometry x="230.00000000000003" y="573" width="28.8" height="24" as="geometry"/>
                </mxCell>
                <mxCell id="209" style="edgeStyle=orthogonalEdgeStyle;rounded=0;orthogonalLoop=1;jettySize=auto;html=1;exitX=0.5;exitY=1;exitDx=0;exitDy=0;entryX=0.5;entryY=0;entryDx=0;entryDy=0;fontSize=14;strokeColor=#878787;" parent="1" source="206" target="207" edge="1">
                    <mxGeometry relative="1" as="geometry"/>
                </mxCell>
                <mxCell id="211" style="edgeStyle=orthogonalEdgeStyle;rounded=0;orthogonalLoop=1;jettySize=auto;html=1;exitX=0;exitY=0.5;exitDx=0;exitDy=0;entryX=0;entryY=0.75;entryDx=0;entryDy=0;fontSize=14;strokeColor=#878787;" parent="1" source="206" target="178" edge="1">
                    <mxGeometry relative="1" as="geometry">
                        <Array as="points">
                            <mxPoint x="245" y="680"/>
                        </Array>
                    </mxGeometry>
                </mxCell>
                <mxCell id="206" value="清除该设备&lt;br&gt;绑定的所有账号" style="rhombus;whiteSpace=wrap;html=1;strokeColor=none;fillColor=#FF7200;fontSize=14;fontColor=#FFFFFF;" parent="1" vertex="1">
                    <mxGeometry x="245" y="791" width="170" height="85" as="geometry"/>
                </mxCell>
                <mxCell id="207" value="&lt;font face=&quot;helvetica&quot; style=&quot;font-size: 14px&quot;&gt;7.调用清空账号:&lt;br&gt;clearAccounts&lt;br style=&quot;font-size: 14px&quot;&gt;&lt;/font&gt;" style="rounded=1;whiteSpace=wrap;html=1;strokeColor=#001DBC;fillColor=#006EFF;fontSize=14;fontColor=#FFFFFF;" parent="1" vertex="1">
                    <mxGeometry x="270" y="935" width="120" height="60" as="geometry"/>
                </mxCell>
                <mxCell id="210" value="是" style="text;html=1;strokeColor=none;fillColor=none;align=center;verticalAlign=middle;whiteSpace=wrap;rounded=0;fontColor=#999999;aspect=fixed;fontSize=14;" parent="1" vertex="1">
                    <mxGeometry x="301" y="884" width="28.8" height="24" as="geometry"/>
                </mxCell>
                <mxCell id="212" value="否" style="text;html=1;strokeColor=none;fillColor=none;align=center;verticalAlign=middle;whiteSpace=wrap;rounded=0;fontColor=#999999;aspect=fixed;fontSize=14;" parent="1" vertex="1">
                    <mxGeometry x="216.2" y="738" width="28.8" height="24" as="geometry"/>
                </mxCell>
                <mxCell id="216" style="edgeStyle=orthogonalEdgeStyle;rounded=0;orthogonalLoop=1;jettySize=auto;html=1;entryX=0.5;entryY=1;entryDx=0;entryDy=0;exitX=1;exitY=0.5;exitDx=0;exitDy=0;fontSize=14;strokeColor=#878787;" parent="1" source="160" target="155" edge="1">
                    <mxGeometry relative="1" as="geometry">
                        <mxPoint x="225" y="190" as="targetPoint"/>
                        <Array as="points">
                            <mxPoint x="653" y="398"/>
                            <mxPoint x="653" y="188"/>
                        </Array>
                        <mxPoint x="310" y="350" as="sourcePoint"/>
                    </mxGeometry>
                </mxCell>
                <mxCell id="265" value="&lt;h1 style=&quot;font-size: 14px&quot;&gt;&lt;br style=&quot;font-size: 14px;&quot;&gt;&lt;/h1&gt;&lt;h1 style=&quot;font-size: 14px&quot;&gt;&amp;nbsp; 备注&lt;/h1&gt;&lt;p style=&quot;font-size: 14px&quot;&gt;&amp;nbsp; 同一种账号类型只支持绑定一个账号&lt;br style=&quot;font-size: 14px&quot;&gt;&lt;/p&gt;" style="text;html=1;spacing=5;spacingTop=-20;whiteSpace=wrap;overflow=hidden;rounded=0;fillColor=#00CBDC;strokeColor=#00CBDC;fontSize=14;fontColor=#FFFFFF;" parent="1" vertex="1">
                    <mxGeometry x="179.4" y="1318" width="510" height="95" as="geometry"/>
                </mxCell>
                <mxCell id="276" style="edgeStyle=orthogonalEdgeStyle;rounded=0;orthogonalLoop=1;jettySize=auto;html=1;strokeColor=#878787;" edge="1" parent="1" source="271" target="275">
                    <mxGeometry relative="1" as="geometry"/>
                </mxCell>
                <mxCell id="271" value="&lt;font face=&quot;helvetica&quot; style=&quot;font-size: 14px&quot;&gt;5.新增绑定账号类型：调用&lt;br&gt;upsertAccounts，例如绑定&lt;br&gt;&quot;QQ openid&quot;作为账号&lt;br&gt;&lt;/font&gt;" style="rounded=0;whiteSpace=wrap;html=1;strokeColor=none;fillColor=#00A4FF;fontSize=14;fontColor=#FFFFFF;" vertex="1" parent="1">
                    <mxGeometry x="415" y="925" width="190" height="80" as="geometry"/>
                </mxCell>
                <mxCell id="274" style="edgeStyle=orthogonalEdgeStyle;rounded=0;orthogonalLoop=1;jettySize=auto;html=1;strokeColor=#878787;" edge="1" parent="1" source="272" target="271">
                    <mxGeometry relative="1" as="geometry"/>
                </mxCell>
                <mxCell id="285" style="edgeStyle=orthogonalEdgeStyle;rounded=0;orthogonalLoop=1;jettySize=auto;html=1;strokeColor=#878787;entryX=1;entryY=0.75;entryDx=0;entryDy=0;exitX=1;exitY=0.5;exitDx=0;exitDy=0;" edge="1" parent="1" source="272" target="178">
                    <mxGeometry relative="1" as="geometry">
                        <mxPoint x="592.9411764705878" y="833.5294117647059" as="sourcePoint"/>
                        <mxPoint x="513" y="680" as="targetPoint"/>
                        <Array as="points">
                            <mxPoint x="595" y="680"/>
                        </Array>
                    </mxGeometry>
                </mxCell>
                <mxCell id="272" value="需要新增&lt;br&gt;绑定账号类型" style="rhombus;whiteSpace=wrap;html=1;strokeColor=none;fillColor=#FF7200;fontSize=14;fontColor=#FFFFFF;" vertex="1" parent="1">
                    <mxGeometry x="425" y="791" width="170" height="85" as="geometry"/>
                </mxCell>
                <mxCell id="279" style="edgeStyle=orthogonalEdgeStyle;rounded=0;orthogonalLoop=1;jettySize=auto;html=1;strokeColor=#878787;" edge="1" parent="1" source="275" target="277">
                    <mxGeometry relative="1" as="geometry"/>
                </mxCell>
                <mxCell id="291" style="edgeStyle=orthogonalEdgeStyle;rounded=0;orthogonalLoop=1;jettySize=auto;html=1;entryX=1;entryY=0.25;entryDx=0;entryDy=0;strokeColor=#878787;" edge="1" parent="1" source="275" target="178">
                    <mxGeometry relative="1" as="geometry">
                        <Array as="points">
                            <mxPoint x="657" y="1084"/>
                            <mxPoint x="657" y="640"/>
                        </Array>
                    </mxGeometry>
                </mxCell>
                <mxCell id="275" value="需要解绑之前&lt;br&gt;绑定的账号类型" style="rhombus;whiteSpace=wrap;html=1;strokeColor=none;fillColor=#FF7200;fontSize=14;fontColor=#FFFFFF;" vertex="1" parent="1">
                    <mxGeometry x="425" y="1041" width="170" height="85" as="geometry"/>
                </mxCell>
                <mxCell id="280" style="edgeStyle=orthogonalEdgeStyle;rounded=0;orthogonalLoop=1;jettySize=auto;html=1;entryX=1;entryY=0.25;entryDx=0;entryDy=0;exitX=0.5;exitY=1;exitDx=0;exitDy=0;strokeColor=#878787;" edge="1" parent="1" source="277" target="178">
                    <mxGeometry relative="1" as="geometry">
                        <mxPoint x="632" y="1218" as="sourcePoint"/>
                        <Array as="points">
                            <mxPoint x="510" y="1267"/>
                            <mxPoint x="657" y="1267"/>
                            <mxPoint x="657" y="640"/>
                        </Array>
                    </mxGeometry>
                </mxCell>
                <mxCell id="277" value="&lt;font face=&quot;helvetica&quot;&gt;6.解绑不需要的“账号类型”:&amp;nbsp;&lt;br&gt;&lt;/font&gt;&lt;span style=&quot;font-family: &amp;#34;helvetica&amp;#34;&quot;&gt;delAccounts，例如解绑&lt;br&gt;&quot;微信 openid&quot;账号类型&lt;/span&gt;" style="rounded=0;whiteSpace=wrap;html=1;strokeColor=none;fillColor=#00A4FF;fontSize=14;fontColor=#FFFFFF;" vertex="1" parent="1">
                    <mxGeometry x="415" y="1164" width="190" height="80" as="geometry"/>
                </mxCell>
                <mxCell id="278" value="是" style="text;html=1;strokeColor=none;fillColor=none;align=center;verticalAlign=middle;whiteSpace=wrap;rounded=0;fontColor=#999999;aspect=fixed;fontSize=14;" vertex="1" parent="1">
                    <mxGeometry x="46" y="450" width="28.8" height="24" as="geometry"/>
                </mxCell>
                <mxCell id="283" value="否" style="text;html=1;strokeColor=none;fillColor=none;align=center;verticalAlign=middle;whiteSpace=wrap;rounded=0;fontColor=#999999;aspect=fixed;fontSize=14;" vertex="1" parent="1">
                    <mxGeometry x="595" y="738" width="28.8" height="24" as="geometry"/>
                </mxCell>
                <mxCell id="284" value="是" style="text;html=1;strokeColor=none;fillColor=none;align=center;verticalAlign=middle;whiteSpace=wrap;rounded=0;fontColor=#999999;aspect=fixed;fontSize=14;" vertex="1" parent="1">
                    <mxGeometry x="511" y="884" width="28.8" height="24" as="geometry"/>
                </mxCell>
                <mxCell id="288" style="edgeStyle=orthogonalEdgeStyle;rounded=0;orthogonalLoop=1;jettySize=auto;html=1;entryX=0.25;entryY=0;entryDx=0;entryDy=0;strokeColor=#878787;exitX=0.5;exitY=0;exitDx=0;exitDy=0;" edge="1" parent="1" source="286" target="178">
                    <mxGeometry relative="1" as="geometry"/>
                </mxCell>
                <mxCell id="289" style="edgeStyle=orthogonalEdgeStyle;rounded=0;orthogonalLoop=1;jettySize=auto;html=1;entryX=0;entryY=0.5;entryDx=0;entryDy=0;strokeColor=#878787;exitX=0;exitY=0.5;exitDx=0;exitDy=0;" edge="1" parent="1" source="286" target="159">
                    <mxGeometry relative="1" as="geometry">
                        <Array as="points">
                            <mxPoint x="77" y="279"/>
                        </Array>
                    </mxGeometry>
                </mxCell>
                <mxCell id="286" value="需要更新已经&lt;br&gt;绑定的账号类型" style="rhombus;whiteSpace=wrap;html=1;strokeColor=none;fillColor=#FF7200;fontSize=14;fontColor=#FFFFFF;" vertex="1" parent="1">
                    <mxGeometry x="77.00000000000003" y="617.5" width="170" height="85" as="geometry"/>
                </mxCell>
                <mxCell id="292" value="否" style="text;html=1;strokeColor=none;fillColor=none;align=center;verticalAlign=middle;whiteSpace=wrap;rounded=0;fontColor=#999999;aspect=fixed;fontSize=14;" vertex="1" parent="1">
                    <mxGeometry x="611" y="1059" width="28.8" height="24" as="geometry"/>
                </mxCell>
                <mxCell id="293" value="是" style="text;html=1;strokeColor=none;fillColor=none;align=center;verticalAlign=middle;whiteSpace=wrap;rounded=0;fontColor=#999999;aspect=fixed;fontSize=14;" vertex="1" parent="1">
                    <mxGeometry x="511" y="1129" width="28.8" height="24" as="geometry"/>
                </mxCell>
            </root>
        </mxGraphModel>
    </diagram>
</mxfile>